<?xml version="1.0" encoding="UTF-8"?>
<!DOCTYPE svg PUBLIC "-//W3C//DTD SVG 1.1//EN" "http://www.w3.org/Graphics/SVG/1.1/DTD/svg11.dtd">
<!-- Creator: CorelDRAW -->
<svg xmlns="http://www.w3.org/2000/svg" xml:space="preserve" width="168.565mm" height="32.5263mm" version="1.1" style="shape-rendering:geometricPrecision; text-rendering:geometricPrecision; image-rendering:optimizeQuality; fill-rule:evenodd; clip-rule:evenodd"
viewBox="0 0 17385.88 3354.78"
 xmlns:xlink="http://www.w3.org/1999/xlink"
 xmlns:xodm="http://www.corel.com/coreldraw/odm/2003">
 <defs>
  <style type="text/css">
   <![CDATA[
    .fil0 {fill:#010101}
    .fil1 {fill:#79766C}
   ]]>
  </style>
 </defs>
 <g id="Layer_x0020_1">
  <metadata id="CorelCorpID_0Corel-Layer"/>
  <g id="_105553232859488">
   <path class="fil0" d="M61.06 3285.91c83.86,60.73 487.92,81.24 566.7,-3.26 138.04,-148.05 -118.09,-1437.64 168.9,-1679.03 79.33,-66.72 629.45,-297.82 632.72,484.27 1.12,268.53 -33.91,1014.57 26.14,1207 120.74,45.56 470.9,70.61 582.26,-6.59 109.45,-124.65 50.4,-815.99 51.16,-1043.92 1.24,-374.14 -24.5,-713.89 388.86,-718.01 647.55,-6.47 280.32,1283.82 407.94,1769.84 148.16,49.4 465.89,46.54 607.92,-6.19 50.1,-213.87 22,-804.94 22.74,-1071.65 1.62,-578.85 -53.08,-1231.31 -883.16,-1236.53 -353.01,-2.22 -577.92,120.91 -745.84,301.91 -124.83,-57.12 -144.6,-149.68 -352.17,-229.79 -409.44,-158.04 -1061.99,-59.87 -1324.05,250.4 -269.83,319.48 -204.16,979.02 -204.05,1486.49 0.04,220.89 -34.83,405.46 53.94,495.05z"/>
   <path class="fil0" d="M8219.92 2192.34c-119.13,-69.06 -276.64,-18.11 -243.53,-168.25 22.61,-102.52 144.6,-142.55 240.33,-178.98 220.7,-83.99 93.26,-59.75 176.9,-235.33 54.07,-113.49 184.94,-109.19 316.75,-77.95 55.08,93.43 46.23,172.85 87.11,245.03 129.98,102.08 362.33,92.43 378.98,285.37 -96.21,112 -139.4,53.56 -246.69,130.11 93.7,479.28 482.68,599.26 -202.2,562.98 -55.54,-70.54 -104.47,-173.37 -174.37,-244.69l-151.94 246.36c-74.42,6.48 -317.45,33 -338.21,-33.65 -62.98,-202.23 -13.58,102.87 -14.51,-58.42 -0.52,-90.03 157.39,-316.03 171.37,-472.58zm914.99 -980.69c-181.71,-117.48 -272.13,-215.79 -574.09,-231.25 -442.85,-22.68 -846.12,163.73 -1049.38,549.62 -105.24,199.79 -156.21,381 -156.57,636.34 -1.61,1146.75 1223.16,1443.64 1798.73,948.83 46.42,169.09 2.85,203.85 214.08,210.41 521.45,16.2 413.61,8.08 411.93,-847l0.22 -1691.46c1.35,-228.93 53.93,-623.15 -58.21,-767.37 -127.42,-31.3 -456.23,-23.55 -562.66,10.22 -50.7,166.3 -32,947.67 -24.04,1181.67z"/>
   <path class="fil0" d="M16630.79 2842.9c-98.97,-249.64 282.27,-360 351.81,-145.48 92.3,284.73 -275.91,336.92 -351.81,145.48zm-900.45 67.98c-312.27,125.14 -450.13,-118.3 -299.99,-274.77 149.84,-156.18 392.55,-38.16 299.99,274.77zm379.58 -958.9c282.34,-104.55 377.06,287.47 175.77,369.16 -187.33,76.02 -349.32,-80.79 -281.16,-277.7 36.35,-105.01 33.64,-64.91 105.39,-91.46zm536.04 -296.58c-100.94,-347.68 193.95,-388.33 304.74,-256.4 133.86,159.38 3.66,411.08 -304.74,256.4zm-1130.27 -301.09c237.49,-105.57 334.88,257.83 136.2,336.93 -237.12,94.41 -385.44,-226.14 -136.2,-336.93zm1844.14 1358.47c35.67,-338.98 35.5,-805.79 -5.53,-1144.95 -48.73,-402.92 -208.41,-543.76 -615.28,-583.5 -340.13,-33.23 -819.17,-35.01 -1156.95,7.24 -410.98,51.41 -530.28,179.72 -576.16,594.81 -36.98,334.52 -40.7,826.01 1.84,1161.71 54.01,426.22 195.34,529.04 625.73,574.87 328.11,34.95 823.7,33.7 1150.45,-9.08 400.39,-52.41 532.65,-190.08 575.91,-601.11z"/>
   <path class="fil0" d="M11157.01 1525.67c812.82,-116.53 879.73,1192.02 180.08,1278.3 -824.81,101.73 -890.61,-1176.44 -180.08,-1278.3zm-1126.23 822.8c84.93,637.25 646.7,1091.82 1394.42,992.71 1561.25,-206.97 1325.37,-2558.75 -365.54,-2350.87 -646,79.43 -1127.8,615.98 -1028.88,1358.16z"/>
   <path class="fil0" d="M5603.81 1178.06c0,39.22 9.91,30.25 -28.84,27.89l-31.45 20.55 -50.14 29.83 2.24 -164.33c-79.32,-129.79 -465.7,-96.31 -604.24,-50.44 -51.33,191.48 -21.66,891.87 -21.77,1150.79 -0.11,235.99 -60.23,965.96 47.67,1099.19 104.21,61.95 452.41,60.51 559.66,3.09 243.51,-288.28 -319.45,-1724.77 511.17,-1761.36 436.18,-19.22 471.01,299.14 470.71,685.09 -0.12,169.41 -47.01,982.18 53.1,1065.8 86.32,69.77 484.47,79.05 558.91,-9.5 84.89,-86.59 113.18,-1520.79 -83.47,-1873.26 -267.9,-480.2 -918.67,-544.5 -1383.56,-223.34z"/>
   <path class="fil0" d="M12382.36 1018.32c43.13,187.74 406.6,1023.46 508.97,1294.28 84.06,222.36 170.16,429.43 261.8,649.13 146.76,351.8 78.76,359.42 508.17,362.98 406.14,3.37 358.48,-84.23 488.55,-408.26 84.83,-211.35 167.58,-417.7 253.98,-630.66 101.7,-250.64 463.8,-1054.79 494.73,-1256.39 -169.43,-31.32 -547.22,-37.52 -654.78,54.74 -80.47,69.04 -165.1,353.97 -213.81,487.69 -65.05,178.57 -136.12,348.59 -202.01,526.75 -51.92,140.38 -122.46,376.82 -182.01,499.79 -695.28,-1756.4 -355.49,-1587.45 -1263.59,-1580.04z"/>
   <path class="fil0" d="M3894.78 1036.37c-43.2,126.69 -45.31,2101.36 -22.72,2184.66 39.01,143.81 514.12,160.01 594.8,49.47 96.03,-98.92 60.13,-2119.16 21.46,-2230.83 -126.7,-39.55 -462.48,-36.79 -593.54,-3.3z"/>
   <path class="fil0" d="M3846.59 448.84c63.03,402.47 792.1,366.79 705.45,-149.47 -71.38,-425.28 -781.59,-336.68 -705.45,149.47z"/>
   <path class="fil1" d="M5543.52 1226.5l31.45 -20.55c38.75,2.36 28.84,11.34 28.84,-27.89l-28.84 27.89 -31.45 20.55 -18.33 -33.42c-40.92,-106.36 34.1,106.02 -11.82,-40.25 -11.46,-36.54 -1.3,-23.1 -17.75,-60.84l-2.24 164.33 50.14 -29.83z"/>
  </g>
 </g>
</svg>
